<?xml version="1.0" encoding="utf-8"?>
<!-- Generator: Adobe Illustrator 16.0.0, SVG Export Plug-In . SVG Version: 6.00 Build 0)  -->
<!DOCTYPE svg PUBLIC "-//W3C//DTD SVG 1.1//EN" "http://www.w3.org/Graphics/SVG/1.1/DTD/svg11.dtd">
<svg version="1.1" id="Layer_1" xmlns="http://www.w3.org/2000/svg" xmlns:xlink="http://www.w3.org/1999/xlink" x="0px" y="0px"
	 width="1920px" height="1080px" viewBox="0 0 1920 1080" enable-background="new 0 0 1920 1080" xml:space="preserve">
<path fill="#FFFFFF" d="M194.721,332.823l-45.73,17.259l178.724,213.127l-155.182,67.782l-80.963-53.414L60,589.73l64.388,83.616
	l8.519,105.801l31.563-12.148l24.271-93.911L350,621.099l9.605,276.188l45.728-17.26l78.214-305.599
	c30.466-11.084,74.62-28.425,104.876-40.078c37.777-14.535,48.724-35.658,41.46-54.545c-7.271-18.889-30.012-28.395-67.786-13.851
	c-30.25,11.647-74.193,29.549-104.233,41.76l-256.25-177.881"/>
<rect x="1734.645" y="275.212" transform="matrix(0.7071 0.7071 -0.7071 0.7071 795.2571 -1126.8337)" fill="#FFFFFF" width="46.356" height="242.643"/>
<rect x="1636.501" y="373.356" transform="matrix(0.7071 0.7071 -0.7071 0.7071 795.2521 -1126.8307)" fill="#FFFFFF" width="242.644" height="46.355"/>
<polygon fill="#FFFFFF" points="1748.582,501.413 1685.227,587.146 1748.582,587.146 1811.934,587.146 "/>
<g>
	<path fill="#FFFFFF" d="M1332.812,682.093c-8.94-22.645-18.413-45.74-28.831-68.533l-43.29,16.621
		c10.277,22.346,19.727,45.4,28.849,68.526L1332.812,682.093z"/>
	<path fill="#FFFFFF" d="M1684.507,790.196c-10.636,24.058-23.075,44.761-37.293,62.079l33.669,32.021
		c18.292-21.758,34.077-47.825,47.189-78.052L1684.507,790.196z"/>
	<path fill="#FFFFFF" d="M1377,792.739l-43.325,16.636c10.424,23.903,21.393,46.258,33.669,66.188l36.338-29.512
		C1394.252,830.05,1385.481,812.054,1377,792.739z"/>
	<path fill="#FFFFFF" d="M1220.184,555.281c11.509,17.659,21.903,36.474,31.522,56.004l43.358-16.647
		c-11.184-22.983-23.48-45.412-37.316-66.492L1220.184,555.281z"/>
	<path fill="#FFFFFF" d="M783.847,463.802c26.686-5.568,55.983-11.43,84.376-16.616l-7.213-45.83
		c-28.639,5.205-58.035,11.067-84.854,16.653L783.847,463.802z"/>
	<path fill="#FFFFFF" d="M1713.181,696.23c-4.316,22.053-10.438,46.197-19.136,70.18c-0.545,1.499-1.095,2.985-1.649,4.462
		l43.499,16.026c0.718-1.916,1.428-3.847,2.13-5.792c9.45-26.277,16.089-52.427,20.756-76.23L1713.181,696.23z"/>
	<path fill="#FFFFFF" d="M1589.642,950.068c28.822-10.878,54.63-27.739,77.162-50.374l-33.63-31.983
		c-17.929,17.738-38.272,30.84-60.978,39.275L1589.642,950.068z"/>
	<path fill="#FFFFFF" d="M1762.442,684.342c7.183-44.688,7.379-77.19,7.384-79.38l-46.355-0.108c0,0.489-0.227,30.063-6.662,70.834
		L1762.442,684.342z"/>
	<path fill="#FFFFFF" d="M1245.905,510.966c-6.271-8.629-12.844-16.973-19.754-24.965c-11.709-13.54-24.045-25.679-37.003-36.481
		l-26.104,38.634c9.705,8.399,19.038,17.757,28.044,28.169c6.023,6.965,11.761,14.242,17.259,21.773L1245.905,510.966z"/>
	<path fill="#FFFFFF" d="M755.726,422.314c-45.646,9.723-80.016,17.743-83.377,18.53l10.566,45.135
		c0.817-0.19,34.774-8.114,80.503-17.866L755.726,422.314z"/>
	<path fill="#FFFFFF" d="M1368.819,773.537c-7.761-18.719-15.375-38.38-23.144-58.443c-1.738-4.491-3.492-9.02-5.263-13.574
		l-43.275,16.615c1.776,4.57,3.545,9.138,5.312,13.695c7.722,19.948,15.3,39.52,23.074,58.329L1368.819,773.537z"/>
	<path fill="#FFFFFF" d="M1552.157,913.079c-14.771,3.542-30.427,5.318-46.959,5.318c-0.012,0-0.03,0-0.041,0
		c-6.129-0.001-12.019-0.504-17.709-1.504l-20.664,42.815c12.178,3.358,24.948,5.042,38.364,5.044c0.02,0,0.029,0,0.05,0
		c22.788-0.001,44.322-2.782,64.537-8.262L1552.157,913.079z"/>
	<path fill="#FFFFFF" d="M1467.213,910.83c-19.046-8.316-35.931-23.698-52.228-47.086l-36.065,29.289
		c20.237,28.255,42.804,48.014,68.15,59.536L1467.213,910.83z"/>
	<path fill="#FFFFFF" d="M965.582,386.1c-0.041,0.003-0.08,0.005-0.123,0.008c-22.852,1.875-52.393,6.186-83.904,11.61l7.21,45.813
		c30.527-5.28,58.919-9.453,80.485-11.223c0.479-0.04,0.948-0.062,1.426-0.101L965.582,386.1z"/>
	<path fill="#FFFFFF" d="M1172.627,436.71c-22.96-16.448-47.815-28.942-74.676-37.572l-12.863,44.652
		c5.677,1.871,11.261,3.925,16.731,6.21c15.872,6.628,30.749,14.988,44.825,25.16L1172.627,436.71z"/>
	<path fill="#FFFFFF" d="M1077.872,393.484c-28.313-6.842-58.745-9.688-91.435-8.589l5.108,46.241
		c26.422-0.638,50.785,1.664,73.465,6.993L1077.872,393.484z"/>
</g>
</svg>
